# AST/ASF file generated using VICON BodyLanguage
# -----------------------------------------------
:version 1.10
:name VICON
:units
  mass 1.0
  length 0.45
  angle deg
:documentation
   .ast/.asf automatically generated from VICON data using
   VICON BodyBuilder and BodyLanguage model FoxedUp or BRILLIANT.MOD
:root
   order TX TY TZ RX RY RZ
   axis XYZ
   position 0 0 0  
   orientation 0 0 0 
:bonedata
  begin
     id 1 
     name lhipjoint
     direction 0.521689 -0.742065 0.420928 
     length 2.47002 
     axis 0 0 0  XYZ
  end
  begin
     id 2 
     name lfemur
     direction 0.34202 -0.939693 0  
     length 7.24654  
     axis 0 0 20  XYZ
    dof rx ry rz
    limits (-160.0 20.0)
           (-70.0 70.0)
           (-60.0 70.0)
  end
  begin
     id 3 
     name ltibia
     direction 0.34202 -0.939693 0   
     length 8.04849   
     axis 0 0 20   XYZ
    dof rx
    limits (-10.0 170.0)
  end
  begin
     id 4 
     name lfoot
     direction 0.0745411 -0.2048 0.975961   
     length 1.72367   
     axis -90 7.62852e-016 20   XYZ
    dof rx rz
    limits (-45.0 90.0)
           (-70.0 20.0)
  end
  begin
     id 5 
     name ltoes
     direction 1.53556e-011 -4.21901e-011 1   
     length 0.87311   
     axis -90 7.62852e-016 20   XYZ
    dof rx
    limits (-90.0 20.0)
  end
  begin
     id 6 
     name rhipjoint
     direction -0.52849 -0.738415 0.418857   
     length 2.48223  
     axis 0 0 0  XYZ 
  end
  begin
     id 7 
     name rfemur
     direction -0.34202 -0.939693 0   
     length 7.15571   
     axis 0 0 -20   XYZ
    dof rx ry rz
    limits (-160.0 20.0)
           (-70.0 70.0)
           (-70.0 60.0)
  end
  begin
     id 8 
     name rtibia
     direction -0.34202 -0.939693 0   
     length 7.81659   
     axis 0 0 -20   XYZ
    dof rx
    limits (-10.0 170.0)
 end
 begin
     id 9 
     name rfoot
     direction -0.0917348 -0.252039 0.963359   
     length 1.84382  
     axis -90 -7.62852e-016 -20   XYZ
    dof rx rz
    limits (-45.0 90.0)
           (-20.0 70.0)
  end
  begin
     id 10 
     name rtoes
     direction -1.53551e-011 -4.21879e-011 1   
     length 0.927771   
     axis -90 -7.62852e-016 -20   XYZ
    dof rx
    limits (-90.0 20.0)
  end
  begin
     id 11 
     name lowerback
     direction 0.00583058 0.999822 0.0179296   
     length 2.1429   
     axis 0 0 0   XYZ
    dof rx ry rz
    limits (-20.0 45.0)
           (-30.0 30.0)
           (-30.0 30.0)
  end
  begin
     id 12 
     name upperback
     direction -0.0137999 0.999752 -0.0175071   
     length 2.14252   
     axis 0 0 0   XYZ
    dof rx ry rz
    limits (-20.0 45.0)
           (-30.0 30.0)
           (-30.0 30.0)
  end
  begin
     id 13 
     name thorax
     direction -0.0158036 0.99955 -0.0254909   
     length 2.1383   
     axis 0 0 0   XYZ
    dof rx ry rz
    limits (-20.0 45.0)
           (-30.0 30.0)
           (-30.0 30.0)
  end
  begin
     id 14 
     name lowerneck
     direction -0.0101179 0.999403 -0.0330262   
     length 1.65808   
     axis 0 0 0   XYZ
    dof rx ry rz
    limits (-20.0 45.0)
           (-30.0 30.0)
           (-30.0 30.0)
  end
  begin
     id 15 
     name upperneck
     direction 0.0497734 0.995978 -0.074501   
     length 1.5897   
     axis 0 0 0   XYZ
    dof rx ry rz
    limits (-20.0 45.0)
           (-30.0 30.0)
           (-30.0 30.0)
  end
  begin
     id 16
     name head
     direction 0.0189524 0.999519 -0.0245438  
     length 1.74024  
     axis 0 0 0   XYZ
    dof rx ry rz
    limits (-20.0 45.0)
           (-30.0 30.0)
           (-30.0 30.0)
  end
  begin
     id 17 
     name lclavicle
     direction 0.945604 0.324422 0.0241537  
     length 3.59089  
     axis 0 0 0   XYZ
    dof ry rz
    limits (-20.0 10.0)
           (0.0 20.0)
  end
  begin
     id 18 
     name lhumerus
     direction 1 -4.48964e-011 -2.63524e-027   
     length 5.2391   
     axis 180 -30 -90   XYZ
    dof rx ry rz
    limits (-60.0 90.0)
           (-90.0 90.0)
           (-90.0 90.0)
  end
  begin
     id 19
     name lradius
     direction 1 -4.48969e-011 3.86978e-028   
     length 3.31467   
     axis 180 -30 -90   XYZ
    dof rx
    limits (-10.0 170.0)
  end
  begin
     id 20
     name lwrist
     direction 1 -4.48963e-011 7.20928e-028   
     length 1.65734   
     axis -5.52449e-016 90 90   XYZ
    dof ry
    limits (-180.0 0.0)
 end
  begin
     id 21 
     name lhand
     direction 1 -4.48964e-011 1.44186e-027   
     length 0.9659   
     axis -9.20027e-016 90 90   XYZ
    dof rx rz
    limits (-90.0 90.0)
           (-45.0 45.0)
  end
  begin
     id 22 
     name lfingers
     direction 1 -4.48965e-011 2.88371e-027   
     length 0.778733   
     axis -1.84005e-015 90 90   XYZ
    dof rx
    limits (0.0 90.0)
  end
  begin
     id 23
     name lthumb
     direction 0.707107 -6.34931e-011 0.707107   
     length 1.11811   
     axis -90 45 2.85299e-015   XYZ
    dof rx rz
    limits (-45.0 45.0)
           (-45.0 45.0)
  end
  begin
     id 24 
     name rclavicle
     direction -0.923762 0.370785 0.0958234   
     length 3.54196  
     axis 0 0 0   XYZ 
    dof ry rz
    limits (-10.0 20.0)
           (-20.0 0.0)
  end
  begin
     id 25 
     name rhumerus
     direction -1 -4.48966e-011 1.18702e-017  
     length 5.30252   
     axis 180 30 90   XYZ
    dof rx ry rz
    limits (-90.0 60.0)
           (-90.0 90.0)
           (-90.0 90.0)
  end
  begin
     id 26 
     name rradius
     direction -1 -4.48966e-011 4.46736e-027   
     length 3.67875   
     axis 180 30 90   XYZ
    dof rx
    limits (-10.0 170.0)
  end
  begin
     id 27 
     name rwrist
     direction -1 -4.48966e-011 7.20928e-028   
     length 1.83937   
     axis -5.52449e-016 -90 -90   XYZ
    dof ry
    limits (-180.0 0.0)
  end
  begin
     id 28
     name rhand
     direction -1 -4.48973e-011 1.44186e-027   
     length 0.594811   
     axis -9.20027e-016 -90 -90   XYZ
    dof rx rz
    limits (-90.0 90.0)
           (-45.0 45.0)
  end
  begin
     id 29
     name rfingers
     direction -1 -4.48963e-011 2.88371e-027   
     length 0.479552   
     axis -1.84005e-015 -90 -90   XYZ
    dof rx
    limits (0.0 90.0)
  end
  begin
     id 30
     name rthumb
     direction -0.707107 -6.34932e-011 0.707107   
     length 0.688544   
     axis -90 -45 -2.85299e-015   XYZ
    dof rx rz
    limits (-45.0 45.0)
           (-45.0 45.0)
  end
:hierarchy
  begin
    root lhipjoint rhipjoint lowerback
    lhipjoint lfemur
    lfemur ltibia
    ltibia lfoot
    lfoot ltoes
    rhipjoint rfemur
    rfemur rtibia
    rtibia rfoot
    rfoot rtoes
    lowerback upperback
    upperback thorax
    thorax lowerneck lclavicle rclavicle
    lowerneck upperneck
    upperneck head
    lclavicle lhumerus
    lhumerus lradius
    lradius lwrist
    lwrist lhand lthumb
    lhand lfingers
    rclavicle rhumerus
    rhumerus rradius
    rradius rwrist
    rwrist rhand rthumb
    rhand rfingers
  end

#!OML:ASF E:\acrobat2\Project_11_07_03\Capture day 1\Session 1\Acrobat.ASF
:FULLY-SPECIFIED
:DEGREES
271
root 7.05538 17.6947 -29.2463 15.7909 3.14335 3.007
lowerback 2.42077 -0.847503 -6.33602
upperback 3.88073 -1.11228 -2.25368
thorax 2.73124 -0.690351 1.21954
lowerneck 4.77596 -2.32738 -1.06967
upperneck -4.32555 -2.9036 5.519
head -2.09618 -1.58332 2.04544
rclavicle 3.18055e-015 6.36111e-015
rhumerus -45.0988 -12.813 -70.3595
rradius 24.3303
rwrist 8.3548
rhand 3.64805 -20.8939
rfingers 7.12502
rthumb 29.0796 -48.6439
lclavicle 3.18055e-015 6.36111e-015
lhumerus -24.7109 -16.6081 84.0554
lradius 31.0335
lwrist 13.5392
lhand -8.28636 -11.0848
lfingers 7.12502
lthumb 17.6333 18.1356
rfemur -44.4214 -3.81779 14.5444
rtibia 37.4042
rfoot -22.7696 -4.72513
rtoes -7.84397
lfemur -4.58043 -2.31537 -21.8359
ltibia 8.62858
lfoot -15.4924 -17.729
ltoes 21.7141
272
root 7.05097 17.6722 -29.1352 15.9406 3.2676 3.03114
lowerback 2.52915 -0.948405 -6.34658
upperback 3.98074 -1.25138 -2.17234
thorax 2.78626 -0.764236 1.30914
lowerneck 4.84934 -2.29504 -1.06317
upperneck -4.48654 -2.8524 5.52919
head -2.16449 -1.56145 2.05136
rclavicle -1.43125e-014 1.59028e-014
rhumerus -45.2617 -13.1439 -69.9561
rradius 24.1327
rwrist 8.51299
rhand 3.66695 -20.9038
rfingers 7.12502
rthumb 29.0977 -48.6507
lclavicle -1.43125e-014 1.59028e-014
lhumerus -24.4504 -16.9647 84.0656
lradius 31.3084
lwrist 13.6059
lhand -8.42443 -11.1994
lfingers 7.12502
lthumb 17.5004 18.0329
rfemur -45.0655 -3.73553 14.3676
rtibia 36.2964
rfoot -22.6947 -4.97597
rtoes -7.22506
lfemur -4.33125 -2.42284 -21.8202
ltibia 8.5668
lfoot -15.536 -17.7745
ltoes 22.3456
273
root 7.04603 17.6481 -29.02 16.0817 3.40861 3.05014
lowerback 2.62835 -1.05951 -6.35575
upperback 4.0828 -1.40345 -2.07663
thorax 2.85042 -0.845115 1.4126
lowerneck 4.87758 -2.25756 -1.04421
upperneck -4.60267 -2.79716 5.50726
head -2.2104 -1.53567 2.04231
rclavicle 4.37326e-015 1.59028e-015
rhumerus -45.4034 -13.4757 -69.54
rradius 23.9301
rwrist 8.65272
rhand 3.75245 -21.0088
rfingers 7.12502
rthumb 29.1793 -48.7416
lclavicle 4.37326e-015 1.59028e-015
lhumerus -24.1573 -17.2852 84.0772
lradius 31.5204
lwrist 13.6226
lhand -8.52092 -11.2723
lfingers 7.12502
lthumb 17.4076 17.9683
rfemur -45.6702 -3.65827 14.1874
rtibia 35.1791
rfoot -22.5908 -5.28095
rtoes -6.45772
lfemur -4.06922 -2.54061 -21.7916
ltibia 8.52553
lfoot -15.5291 -17.8781
ltoes 23.2657
274
root 7.04065 17.6225 -28.9011 16.2092 3.56031 3.07655
lowerback 2.73288 -1.17366 -6.3642
upperback 4.18101 -1.56022 -1.98197
thorax 2.90853 -0.928146 1.51485
lowerneck 4.88846 -2.2243 -0.993518
upperneck -4.69081 -2.74774 5.46267
head -2.24418 -1.5121 2.01928
rclavicle -1.11319e-014 -9.54166e-015
rhumerus -45.562 -13.8096 -69.1272
rradius 23.7508
rwrist 8.79064
rhand 3.8671 -21.1967
rfingers 7.12502
rthumb 29.2888 -48.9104
lclavicle -1.11319e-014 -9.54166e-015
lhumerus -23.8393 -17.6065 84.0839
lradius 31.6673
lwrist 13.61
lhand -8.59403 -11.3146
lfingers 7.12502
lthumb 17.3372 17.9321
rfemur -46.2359 -3.60151 14
rtibia 34.0852
rfoot -22.4535 -5.64465
rtoes -5.7837
lfemur -3.79083 -2.67271 -21.7696
ltibia 8.51393
lfoot -15.4855 -18.0423
ltoes 24.486
275
root 7.03508 17.5952 -28.7792 16.3303 3.69993 3.11531
lowerback 2.86787 -1.28245 -6.39468
upperback 4.24826 -1.71438 -1.88234
thorax 2.91869 -1.00892 1.63606
lowerneck 4.9105 -2.17519 -0.918362
upperneck -4.73329 -2.67858 5.38988
head -2.26604 -1.47781 1.98125
rclavicle -7.95139e-015 -1.90833e-014
rhumerus -45.7852 -14.0748 -68.7275
rradius 23.6401
rwrist 8.87904
rhand 4.01673 -21.4608
rfingers 7.12502
rthumb 29.4317 -49.1495
lclavicle -7.95139e-015 -1.90833e-014
lhumerus -23.546 -17.9197 84.1111
lradius 31.7639
lwrist 13.5554
lhand -8.66828 -11.3168
lfingers 7.12502
lthumb 17.2657 17.9362
rfemur -46.7894 -3.56459 13.8085
rtibia 33.053
rfoot -22.2866 -6.05944
rtoes -5.36875
lfemur -3.50474 -2.82136 -21.7674
ltibia 8.5337
lfoot -15.4379 -18.2287
ltoes 25.8923
276
root 7.02959 17.5658 -28.6543 16.4533 3.81181 3.16876
lowerback 3.00165 -1.38139 -6.43613
upperback 4.29429 -1.85645 -1.79144
thorax 2.90738 -1.08295 1.75516
lowerneck 4.96334 -2.12935 -0.81656
upperneck -4.76795 -2.61285 5.29982
head -2.29113 -1.44547 1.93342
rclavicle 8.34896e-015 -1.74931e-014
rhumerus -46.057 -14.2817 -68.3611
rradius 23.5911
rwrist 8.93403
rhand 4.15319 -21.7394
rfingers 7.12502
rthumb 29.5619 -49.4051
lclavicle 8.34896e-015 -1.74931e-014
lhumerus -23.2768 -18.2474 84.147
lradius 31.8301
lwrist 13.4656
lhand -8.76195 -11.302
lfingers 7.12502
lthumb 17.1756 17.9589
rfemur -47.355 -3.54659 13.6141
rtibia 32.1019
rfoot -22.1044 -6.48937
rtoes -5.18641
lfemur -3.21627 -2.98902 -21.7946
ltibia 8.57995
lfoot -15.4336 -18.3825
ltoes 27.2609
277
root 7.02448 17.5343 -28.5256 16.5622 3.86167 3.22966
lowerback 3.15805 -1.45925 -6.48542
upperback 4.31623 -1.97357 -1.71402
thorax 2.85674 -1.14313 1.86634
lowerneck 5.01596 -2.0898 -0.702395
upperneck -4.76856 -2.55615 5.20517
head -2.30463 -1.41721 1.88146
rclavicle -2.22639e-014 -1.82882e-014
rhumerus -46.3773 -14.4436 -68.0228
rradius 23.5946
rwrist 8.98668
rhand 4.25007 -21.9771
rfingers 7.12502
rthumb 29.6544 -49.6264
lclavicle -2.22639e-014 -1.82882e-014
lhumerus -23.0562 -18.6049 84.1954
lradius 31.8789
lwrist 13.3739
lhand -8.8801 -11.3001
lfingers 7.12502
lthumb 17.0619 17.9707
rfemur -47.9216 -3.51928 13.4278
rtibia 31.2303
rfoot -21.9304 -6.88261
rtoes -5.17949
lfemur -2.89119 -3.13906 -21.8524
ltibia 8.63399
lfoot -15.5137 -18.4548
ltoes 28.3558
